@startuml
skinparam linetype ortho
'left to right direction
package SEQUENCE {
    package Functions {
        abstract "SequenceLib_v3" as lib
        class "SequenceStyle" as style
        class "ParametresAndSwitchers" as params
        class "AltProcedures" as alt
        class "ServiceProcedures" as serv
        class "FunctionalProcedures" as function
    }
}
class SEQUENCE.LibraryDocumentation.ProcedureDependencies
class SEQUENCE.LibraryDocumentation.examples.ToBe
class SEQUENCE.LibraryDocumentation.examples.AsIs
class SEQUENCE.DemoSequence

style *..|> lib
lib <|..* params
lib <|.* alt
lib <|.* serv
lib <|..* function

alt --> params
alt *-- function

function --> serv
function --> params

serv --> params

SEQUENCE.LibraryDocumentation -right- SEQUENCE.Functions

SEQUENCE.LibraryDocumentation.ProcedureDependencies -[hidden]- SEQUENCE.LibraryDocumentation.examples

SEQUENCE.DemoSequence --> SEQUENCE.Functions

@enduml0